<svg width="14" height="15" fill="none" xmlns="http://www.w3.org/2000/svg"><path d="M11.6667 2.25a.5833.5833 0 00-.5833-.5833h-1.75V.5H8.1666v1.1667h-1.75V.5H5.25v1.1667H3.5V.5H2.3333v1.1667h-1.75A.5833.5833 0 000 2.25v1.1667h11.6667V2.25zM9.323 7.0887a4.0787 4.0787 0 012.3437 0V4H0v7.5833c0 .3222.2612.5833.5833.5833h6.0054c-.6472-2.1572.577-4.4307 2.7342-5.078zm-1.1563-1.922h1.1666v1.1667H8.1667V5.1667zm-2.9167 0h1.1667v1.1667H5.25V5.1667zM3.5 11H2.3333V9.8333H3.5V11zm0-2.3333H2.3333V7.5H3.5v1.1667zm0-2.3334H2.3333V5.1666H3.5v1.1667zM5.25 7.5h1.1667v1.1667H5.25V7.5z" fill="#FFBD54"/><path d="M10.5 7.5C8.567 7.5 7 9.067 7 11s1.567 3.5 3.5 3.5S14 12.933 14 11c-.0022-1.932-1.5679-3.4978-3.5-3.5zm.4124 3.9124a.5874.5874 0 01-.5967.1412l-1.75-.5833.3692-1.1083 1.4076.4666 1.4951-1.495.8248.8248-1.75 1.754z" fill="#FFBD54"/></svg>