<svg width="13" height="13" fill="none" xmlns="http://www.w3.org/2000/svg"><path d="M12.7612 10.1832l-2.9664-2.697a.7305.7305 0 00-1.015.0313L7.0334 9.3134C6.613 9.233 5.768 8.9697 4.8982 8.102 4.0284 7.2314 3.765 6.3842 3.687 5.9668l1.7944-1.747a.7298.7298 0 00.0314-1.015L2.8163.239a.7298.7298 0 00-1.015-.0635L.2176 1.5336a.7297.7297 0 00-.2117.4737c-.0109.1824-.2196 4.5039 3.1314 7.8563C6.0607 12.7862 9.7225 13 10.731 13c.1475 0 .2379-.0044.262-.0058a.724.724 0 00.4729-.2124l1.3573-1.5842a.7275.7275 0 00-.062-1.0144z" fill="#FFBD54"/></svg>