<svg width="28" height="27" fill="none" xmlns="http://www.w3.org/2000/svg"><path d="M23.5767 17.0502c-2.1973-3.2129-4.5665-6.7384-10.1054-5.2543-2.4688.6616-4.112 1.9347-5.0236 3.8924-.8074 1.734-.9525 3.7708-1.1007 5.7107-.1839 2.378 2.2885 4.0674 4.4467 3.0206 1.7706-.8592 4.1724-2.1511 8.0257-2.4282 1.485-.1068 1.6278-.0988 2.0117-.2017 2.0059-.5375 2.9764-2.9433 1.7456-4.7395z" fill="#FBDD7B"/><path d="M21.8312 21.7897c2.0058-.5375 2.9763-2.9434 1.7455-4.7395-2.1973-3.2129-4.5665-6.7384-10.1054-5.2543l2.8876 10.7766c2.7744-.7434 4.5693-.5408 5.4723-.7828z" fill="#FECB3E"/><path d="M16.5662 16.4037l-1.0848.2906-.2906-1.0847a.6738.6738 0 10-1.3018.3488l.2907 1.0847-1.0848.2907a.6738.6738 0 00-.4764.8253.6737.6737 0 00.8252.4764l1.0848-.2906.2907 1.0848a.6738.6738 0 001.3017-.3488l-.2907-1.0848 1.0848-.2907a.6738.6738 0 10-.3488-1.3017z" fill="#FFF8E0"/><path d="M16.1209 19.0809l-.2907-1.0848 1.0848-.2907a.6738.6738 0 10-.3488-1.3017l-1.0848.2906-.2906-1.0847a.6738.6738 0 00-.8253-.4765l1.2789 4.773a.6738.6738 0 00.4765-.8252z" fill="#FFE799"/><path d="M21.2765 6.2123c-1.3159.3526-2.0997 1.71-1.7471 3.026.3527 1.3159 1.7101 2.0996 3.026 1.747 1.316-.3526 2.1431-1.7217 1.7905-3.0376-.3526-1.316-1.7535-2.088-3.0694-1.7354zM16.4203 8.9163c1.5118-.405 2.3253-2.2714 1.817-4.1685-.5084-1.897-2.146-3.1066-3.6579-2.7015-1.5118.405-2.3253 2.2714-1.817 4.1685.5084 1.8971 2.146 3.1066 3.6579 2.7015z" fill="#FECB3E"/><path d="M9.4777 10.7766c1.5118-.4051 2.3253-2.2714 1.817-4.1685s-2.146-3.1066-3.6579-2.7015c-1.5118.405-2.3253 2.2714-1.817 4.1685.5084 1.897 2.146 3.1066 3.6579 2.7015zM3.92 10.8629c-1.316.3526-2.143 1.7217-1.7904 3.0377.3526 1.3159 1.7534 2.088 3.0694 1.7354 1.3159-.3526 2.0996-1.7101 1.747-3.026-.3526-1.3159-1.71-2.0997-3.026-1.7471z" fill="#FBDD7B"/></svg>